<svg width="1024" height="1024" viewBox="0 0 1024 1024" fill="none" xmlns="http://www.w3.org/2000/svg">
<g clip-path="url(#clip0_2534_2)">
<path d="M946.26 960H787.172C758.614 960 733.007 942.407 722.763 915.749L523.751 397.829C521.31 391.474 519.822 384.793 519.336 378.003L502.233 138.923C499.376 98.9789 531.011 65 571.058 65H615.387C642.809 65 667.629 81.2386 678.612 106.366L1009.48 863.366C1029.41 908.951 996.009 960 946.26 960Z" fill="#452EBA"/>
<path d="M14.8536 863.369L345.68 106.369C356.662 81.2401 381.483 65 408.906 65H579.913C619.81 65 648.182 103.804 636.084 141.822L297.715 918.557C286.75 943.726 261.909 960 234.456 960H78.0795C28.332 960 -5.06794 908.953 14.8536 863.369Z" fill="#6A4DFF"/>
</g>
<defs>
<clipPath id="clip0_2534_2">
<rect width="1024" height="1024" fill="white"/>
</clipPath>
</defs>
</svg>
